<svg width="13" height="14" viewBox="0 0 13 14" fill="none" xmlns="http://www.w3.org/2000/svg">
<path d="M12.4091 6.84524C12.3891 6.78308 12.3891 6.71727 12.4091 6.65539L12.8818 5.20077C12.9983 4.84189 12.8717 4.45152 12.5666 4.23018L11.3291 3.33102C11.277 3.29333 11.2379 3.23933 11.218 3.1783L10.7452 1.72368C10.6287 1.3648 10.2966 1.12349 9.91915 1.12349H8.38972C8.32503 1.12349 8.26287 1.10324 8.21 1.06499L6.97278 0.166113C6.6679 -0.0552305 6.25728 -0.0555117 5.95184 0.166113L4.71434 1.06499C4.66175 1.10324 4.59987 1.12349 4.5349 1.12349H3.00546C2.62803 1.12349 2.29615 1.36452 2.17943 1.72368L1.70665 3.1783C1.68696 3.23933 1.64759 3.29333 1.59528 3.3313L0.358057 4.22989C0.0529006 4.45152 -0.073662 4.84189 0.0427755 5.20077L0.515557 6.65511C0.535526 6.71727 0.535526 6.78308 0.515557 6.84496L0.0427755 8.29958C-0.073662 8.65846 0.0529006 9.04883 0.358057 9.27018L1.59556 10.1693C1.64759 10.207 1.68668 10.261 1.70665 10.3221L2.17943 11.7767C2.29587 12.1356 2.62803 12.3769 3.00546 12.3769H4.5349C4.59959 12.3769 4.66175 12.3971 4.71462 12.4354L5.95212 13.3345C6.10456 13.4453 6.28371 13.5005 6.46231 13.5005C6.6409 13.5005 6.82006 13.4453 6.97278 13.3342L8.21028 12.4354C8.26287 12.3971 8.32475 12.3769 8.38972 12.3769H9.91915C10.2966 12.3769 10.6285 12.1358 10.7452 11.7767L11.218 10.3221C11.2377 10.261 11.277 10.207 11.3293 10.1691L12.5666 9.27046C12.8717 9.04883 12.9983 8.65846 12.8818 8.29958L12.4091 6.84524ZM9.39631 5.53546L5.95437 8.97739C5.8444 9.08736 5.66637 9.08736 5.55668 8.97739L3.52831 6.94902C3.41834 6.83905 3.41834 6.66102 3.52831 6.55133L4.1434 5.93624C4.25337 5.82627 4.4314 5.82627 4.54109 5.93624L5.55696 6.95211C5.66693 7.06208 5.84496 7.06208 5.95465 6.95211L8.38381 4.52296C8.49378 4.41299 8.67181 4.41299 8.7815 4.52296L9.39659 5.13805C9.50656 5.24802 9.50656 5.42605 9.39659 5.53574L9.39631 5.53546Z" fill="#FFC300"/>
</svg>
