<svg width="28" height="28" viewBox="0 0 28 28" fill="none" xmlns="http://www.w3.org/2000/svg">
<g opacity="0.5">
<path d="M23.251 14.1479C23.2199 14.0512 23.2199 13.9488 23.251 13.8526L23.9864 11.5898C24.1675 11.0316 23.9707 10.4243 23.496 10.08L21.571 8.68131C21.49 8.62269 21.4292 8.53869 21.3982 8.44375L20.6627 6.181C20.4816 5.62275 19.9649 5.24737 19.3778 5.24737H16.9987C16.898 5.24737 16.8014 5.21587 16.7191 5.15637L14.7945 3.75812C14.3203 3.41381 13.6815 3.41337 13.2064 3.75812L11.2814 5.15637C11.1996 5.21587 11.1034 5.24737 11.0023 5.24737H8.62316C8.03604 5.24737 7.51979 5.62231 7.33823 6.181L6.60279 8.44375C6.57216 8.53869 6.51091 8.62269 6.42954 8.68175L4.50498 10.0796C4.03029 10.4243 3.83341 11.0316 4.01454 11.5898L4.74998 13.8521C4.78104 13.9488 4.78104 14.0512 4.74998 14.1474L4.01454 16.4102C3.83341 16.9684 4.03029 17.5757 4.50498 17.92L6.42998 19.3187C6.51091 19.3773 6.57173 19.4613 6.60279 19.5562L7.33823 21.819C7.51935 22.3773 8.03604 22.7526 8.62316 22.7526H11.0023C11.1029 22.7526 11.1996 22.7841 11.2819 22.8436L13.2069 24.2423C13.444 24.4147 13.7227 24.5004 14.0005 24.5004C14.2783 24.5004 14.557 24.4147 14.7945 24.2419L16.7195 22.8436C16.8014 22.7841 16.8976 22.7526 16.9987 22.7526H19.3778C19.9649 22.7526 20.4812 22.3777 20.6627 21.819L21.3982 19.5562C21.4288 19.4613 21.49 19.3773 21.5714 19.3182L23.496 17.9204C23.9707 17.5757 24.1675 16.9684 23.9864 16.4102L23.251 14.1479ZM18.5645 12.1104L13.2104 17.4646C13.0393 17.6356 12.7624 17.6356 12.5917 17.4646L9.43648 14.3093C9.26541 14.1382 9.26541 13.8613 9.43648 13.6907L10.3933 12.7339C10.5644 12.5628 10.8413 12.5628 11.0119 12.7339L12.5922 14.3141C12.7632 14.4852 13.0402 14.4852 13.2108 14.3141L16.9895 10.5354C17.1605 10.3644 17.4375 10.3644 17.6081 10.5354L18.5649 11.4922C18.736 11.6633 18.736 11.9402 18.5649 12.1109L18.5645 12.1104Z" fill="white"/>
</g>
</svg>
