<svg width="24" height="25" viewBox="0 0 24 25" fill="none" xmlns="http://www.w3.org/2000/svg">
<path d="M21.8 6.07907L14.8 1.35507C13.9742 0.79347 12.9987 0.493164 12 0.493164C11.0014 0.493164 10.0258 0.79347 9.2 1.35507L2.2 6.07907C1.52215 6.53725 0.967097 7.15476 0.583525 7.87745C0.199953 8.60013 -0.000414419 9.4059 6.43539e-07 10.2241V19.5001C0.0015885 20.8257 0.528883 22.0965 1.46622 23.0339C2.40356 23.9712 3.67441 24.4985 5 24.5001H19C20.3256 24.4985 21.5964 23.9712 22.5338 23.0339C23.4711 22.0965 23.9984 20.8257 24 19.5001V10.2241C24.0004 9.4059 23.8001 8.60013 23.4165 7.87745C23.0329 7.15476 22.4778 6.53725 21.8 6.07907ZM22 19.5001C22 20.2957 21.6839 21.0588 21.1213 21.6214C20.5587 22.184 19.7957 22.5001 19 22.5001H5C4.20435 22.5001 3.44129 22.184 2.87868 21.6214C2.31607 21.0588 2 20.2957 2 19.5001V10.2241C1.99997 9.73299 2.1205 9.24941 2.351 8.81579C2.5815 8.38216 2.91492 8.01175 3.322 7.73707L10.322 3.01307C10.817 2.67679 11.4016 2.49699 12 2.49699C12.5984 2.49699 13.183 2.67679 13.678 3.01307L20.678 7.73707C21.0851 8.01175 21.4185 8.38216 21.649 8.81579C21.8795 9.24941 22 9.73299 22 10.2241V19.5001ZM12 7.50607C10.8122 7.50593 9.65116 7.85831 8.66384 8.51859C7.67652 9.17887 6.90739 10.1173 6.45387 11.2151C6.00035 12.3129 5.88285 13.5205 6.11626 14.6851C6.34966 15.8497 6.92347 16.9189 7.765 17.7571L9.589 19.5411C10.2353 20.167 11.0998 20.517 11.9995 20.517C12.8992 20.517 13.7637 20.167 14.41 19.5411L16.243 17.7491C17.0823 16.91 17.6538 15.8408 17.8854 14.6768C18.117 13.5128 17.9981 12.3063 17.544 11.2099C17.0898 10.1134 16.3206 9.1763 15.3338 8.51703C14.347 7.85775 13.1868 7.50593 12 7.50607ZM14.836 16.3271L13.011 18.1121C12.7398 18.3747 12.377 18.5216 11.9995 18.5216C11.622 18.5216 11.2592 18.3747 10.988 18.1121L9.171 16.3351C8.61196 15.776 8.23113 15.0638 8.07663 14.2884C7.92213 13.513 8.00088 12.7092 8.30294 11.9786C8.605 11.2479 9.11681 10.6231 9.77374 10.1832C10.4307 9.74325 11.2032 9.50785 11.9939 9.50673C12.7845 9.50562 13.5577 9.73883 14.2159 10.1769C14.8741 10.615 15.3876 11.2383 15.6918 11.9681C15.9959 12.6979 16.0769 13.5015 15.9246 14.2773C15.7723 15.0531 15.3935 15.7664 14.836 16.3271ZM13 13.5001C13 13.6979 12.9414 13.8912 12.8315 14.0556C12.7216 14.2201 12.5654 14.3483 12.3827 14.424C12.2 14.4996 11.9989 14.5194 11.8049 14.4809C11.6109 14.4423 11.4327 14.347 11.2929 14.2072C11.153 14.0673 11.0578 13.8891 11.0192 13.6952C10.9806 13.5012 11.0004 13.3001 11.0761 13.1174C11.1518 12.9347 11.28 12.7785 11.4444 12.6686C11.6089 12.5587 11.8022 12.5001 12 12.5001C12.2652 12.5001 12.5196 12.6054 12.7071 12.793C12.8946 12.9805 13 13.2349 13 13.5001Z" fill="#059669"/>
</svg>
